<svg width="40.000000" height="40.000000" viewBox="0 0 40 40" fill="none" xmlns="http://www.w3.org/2000/svg" xmlns:xlink="http://www.w3.org/1999/xlink">
	<desc>
			Created with Pixso.
	</desc>
	<defs>
		<clipPath id="clip5_5">
			<rect id="u:angle-down" rx="-0.500000" width="39.000000" height="39.000000" transform="translate(0.500000 0.500000)" fill="white" fill-opacity="0"/>
		</clipPath>
	</defs>
	<rect id="u:angle-down" rx="-0.500000" width="39.000000" height="39.000000" transform="translate(0.500000 0.500000)" fill="#FFFFFF" fill-opacity="0"/>
	<g clip-path="url(#clip5_5)">
		<path id="Vector" d="M28.33 15.28C28.02 14.97 27.59 14.79 27.15 14.79C26.71 14.79 26.29 14.97 25.98 15.28L20 21.18L14.1 15.28C13.78 14.97 13.36 14.79 12.92 14.79C12.48 14.79 12.06 14.97 11.75 15.28C11.59 15.43 11.47 15.62 11.38 15.82C11.3 16.02 11.25 16.24 11.25 16.46C11.25 16.68 11.3 16.9 11.38 17.1C11.47 17.31 11.59 17.49 11.75 17.65L18.81 24.71C18.97 24.87 19.15 24.99 19.35 25.08C19.56 25.16 19.78 25.21 20 25.21C20.22 25.21 20.43 25.16 20.64 25.08C20.84 24.99 21.02 24.87 21.18 24.71L28.33 17.65C28.48 17.49 28.61 17.31 28.69 17.1C28.78 16.9 28.82 16.68 28.82 16.46C28.82 16.24 28.78 16.02 28.69 15.82C28.61 15.62 28.48 15.43 28.33 15.28Z" fill="#333333" fill-opacity="1.000000" fill-rule="nonzero"/>
	</g>
</svg>
