<svg width="103.662842" height="143.000000" viewBox="0 0 103.663 143" fill="none" xmlns="http://www.w3.org/2000/svg" xmlns:xlink="http://www.w3.org/1999/xlink">
	<desc>
			Created with Pixso.
	</desc>
	<defs/>
	<path id="Path" d="M0 17.18C0.26 17.35 0.48 17.44 0.75 17.62C0.98 17.97 1.02 18.36 1 18.74C1 18.76 1.02 18.8 1.02 18.83C0.9 20.07 -0.1 21.42 0.89 22.19C6.42 26.49 12.52 29.67 6.08 38.49C3.27 42.33 11.16 40.09 11.59 41.48C11.37 48.02 2.12 45.41 4.21 50.8C6.33 56.28 8.97 50.27 11.45 49.49C11.65 49.43 12.66 50.66 12.59 51.17C10.69 63.47 19.05 54.26 23.01 56.01C16.29 65.68 19.66 68.32 30.4 66.92C41.75 65.44 42.65 76.85 44.18 82.55C46.56 91.44 37.89 90.39 31.75 89.61C29.68 89.35 26.09 89.77 27.18 91.26C29.21 94.02 22.22 97.62 28.4 98.88C34.93 100.23 32.93 103.55 30.05 106.65C24.94 112.18 25.86 116.94 32.71 119.4C34.98 120.22 37.19 121.21 42.45 123.38C25.45 122.67 23.64 137.74 11.89 141.97C16.96 144 19.82 142.47 22.94 142.01C33.91 140.43 43.19 133.77 55.03 134.03C67.87 134.29 81.07 132.98 93.6 129.12C96.05 128.36 99.6 126.83 99.57 123.55C99.53 119.6 93.48 123.37 92.56 119.38C93.53 118.23 94.18 117.12 95.16 116.46C100.16 113.03 104.84 108.89 103.39 102.39C101.89 95.57 95.52 95.64 90.13 96.14C86.39 96.46 86.9 95.05 86.42 92.37C83.37 75.19 64.98 67.38 60.32 50.97C59.85 49.33 57.48 47.71 55.65 47.06C48.35 44.49 48.25 40.72 52.7 35.19C54.99 32.33 56.19 28.63 58.28 25.57C62.52 19.39 61.21 16.62 53.52 16.84C47.53 17.02 41.54 16.88 34.6 16.88C36.17 10.66 40.54 9.41 43.24 6.6C45.57 4.22 47.28 -0.75 41.91 0.09C32.73 1.54 20.43 -2.37 16.02 10.49C15.65 11.53 15.27 12.51 14.88 13.42C12.05 19.71 8 22.13 0.76 17.62C0.61 17.39 0.6 17.17 0.31 16.97C0.25 16.99 0.17 17.01 0.11 17.03C0.08 17.09 0.04 17.14 0.02 17.18L0 17.18Z" fill="#121111" fill-opacity="1.000000" fill-rule="nonzero"/>
</svg>
