<svg width="120.000000" height="90.717041" viewBox="0 0 120 90.717" fill="none" xmlns="http://www.w3.org/2000/svg" xmlns:xlink="http://www.w3.org/1999/xlink">
	<desc>
			Created with Pixso.
	</desc>
	<defs/>
	<path id="Path" d="M4.4 57.67C7.97 64.77 11.28 72.49 10.1 80.02C10 80.69 10.51 81.29 11.19 81.29L16.11 81.29C16.46 81.29 16.79 81.13 16.99 80.85C22.95 72.8 31.01 70.28 31.01 70.28C38.3 68.09 46.15 66.15 51.19 66.15C60.59 66.15 62.83 73.85 63.33 76.8C63.45 77.45 64.01 77.93 64.68 77.93C65.29 77.93 65.86 77.68 66.27 77.23L70.64 72.39C71.08 71.91 71.88 72.15 71.98 72.78C73.32 81.23 79.98 89.94 81.24 90.62C81.35 90.69 81.48 90.71 81.6 90.71L101.15 90.71C101.55 90.71 101.88 90.41 101.91 90.02C102.61 82.62 113.97 71.93 118.32 68.07C119.39 67.13 120 65.78 120 64.36L120 55.03C120 54.9 119.97 54.79 119.92 54.68L108.83 32.52C108.76 32.35 108.62 32.23 108.45 32.15C99.37 28.01 99.86 17.67 100.04 15.8C100.05 15.61 100 15.41 99.89 15.26L97.21 11.78C96.96 11.45 96.48 11.38 96.14 11.63L94.92 12.51C94.92 7.15 92.69 2.55 91.44 0.39C91.12 -0.18 90.28 -0.12 90.04 0.49L87.5 7.06C87.46 7.15 87.45 7.25 87.45 7.34C87.44 12.79 86.53 16.45 85.56 18.81C84.69 20.92 82.11 21.7 80.19 20.46C76.42 18 70.31 14.01 68.22 12.65C67.83 12.4 67.76 11.87 68.04 11.5L73.93 4.36C74.34 3.86 73.98 3.09 73.32 3.09L55 3.09C54.8 3.09 54.61 3.17 54.47 3.31L48.46 8.97C48.15 9.28 48.14 9.78 48.45 10.08L50.04 11.68C44.92 13.38 41.48 9.93 40.25 8.38C39.96 8.03 39.43 7.99 39.1 8.31L25.96 20.96C25.85 21.07 25.76 21.21 25.73 21.37C24.35 29.37 8.94 34.81 4.11 36.32C3.22 36.6 2.54 37.33 2.32 38.23L0.07 47.63C-0.07 48.22 -0.01 48.84 0.24 49.38C1.48 52.01 2.95 54.79 4.4 57.67Z" fill="#000000" fill-opacity="1.000000" fill-rule="nonzero"/>
</svg>
